<?xml version="1.0" encoding="UTF-8"?>
<?xml-stylesheet href="../style.css" type="text/css"?>

<svg  class="logo-svg" width="104" height="32" viewBox="0 0 104 32" fill="none" xmlns="http://www.w3.org/2000/svg">
<path class="logo-color" d="M67.0134 26.4839L75.5861 29.191L82.8052 21.9719L91.8291 28.2887L101.304 26.4839L97.2434 13.3993L82.8052 17.9112L74.6837 13.3993L66.111 14.7528L67.0134 26.4839Z" fill="#F1A501"/>
<path    d="M0.16449 22.0298V20.0788L5.6853 19.0826V21.7807C5.71297 23.2474 6.08656 24.3543 6.80606 25.1015C7.55324 25.821 8.53564 26.1807 9.75326 26.1807C10.9432 26.1807 11.8841 25.7933 12.5759 25.0185C13.2954 24.2436 13.6552 23.2059 13.6552 21.9052V1.5654H19.3835V21.9052C19.3835 24.6172 18.4842 26.9141 16.6854 28.7959C14.8866 30.6776 12.5898 31.6185 9.79477 31.6185C6.88908 31.6185 4.5507 30.7468 2.77961 29.0034C1.0362 27.2323 0.16449 24.9078 0.16449 22.0298Z" fill="black"/>
<path d="M20.6999 25.4336C20.6999 23.6901 21.2672 22.2926 22.4018 21.2411C23.5364 20.1895 25.0031 19.5253 26.8018 19.2486L31.8245 18.5014C32.8484 18.363 33.3604 17.8788 33.3604 17.0486C33.3604 16.2737 33.056 15.6372 32.4472 15.1391C31.866 14.641 31.022 14.3919 29.9151 14.3919C28.7528 14.3919 27.8257 14.7102 27.1339 15.3467C26.4697 15.9832 26.0961 16.7718 26.0131 17.7127L21.115 16.675C21.3087 14.9039 22.1804 13.3404 23.7301 11.9844C25.2798 10.6284 27.3276 9.95039 29.8735 9.95039C32.9176 9.95039 35.1591 10.6837 36.5981 12.1504C38.0371 13.5894 38.7566 15.4435 38.7566 17.7127V27.7581C38.7566 28.9757 38.8397 30.055 39.0057 30.9959H33.9415C33.8031 30.3871 33.734 29.5707 33.734 28.5468C32.4333 30.5669 30.427 31.577 27.715 31.577C25.6119 31.577 23.91 30.9682 22.6093 29.7506C21.3363 28.533 20.6999 27.094 20.6999 25.4336ZM28.8773 27.4675C30.1779 27.4675 31.2434 27.1078 32.0736 26.3883C32.9314 25.6411 33.3604 24.4235 33.3604 22.7354V21.8222L28.7528 22.5279C27.0647 22.7769 26.2207 23.6348 26.2207 25.1015C26.2207 25.7656 26.4559 26.3329 26.9263 26.8034C27.3968 27.2462 28.0471 27.4675 28.8773 27.4675Z" fill="black"/>
<path d="M60.3878 0.942749V27.3015C60.3878 28.6575 60.4432 29.8889 60.5539 30.9959H55.2821C55.1437 30.304 55.0746 29.5154 55.0746 28.6298C54.6041 29.4877 53.8569 30.1795 52.833 30.7053C51.8368 31.2311 50.6745 31.494 49.3462 31.494C46.4405 31.494 44.0468 30.4839 42.165 28.4638C40.3109 26.416 39.3838 23.8423 39.3838 20.7429C39.3838 17.7266 40.2971 15.1945 42.1235 13.1466C43.9776 11.0988 46.3298 10.0749 49.1802 10.0749C52.1135 10.0749 54.0368 10.9189 54.95 12.607V0.942749H60.3878ZM44.9462 20.7429C44.9462 22.5417 45.4166 23.9669 46.3575 25.0185C47.2984 26.0424 48.516 26.5543 50.0104 26.5543C51.477 26.5543 52.6808 26.0285 53.6217 24.9769C54.5626 23.9254 55.033 22.5002 55.033 20.7014C55.033 18.9303 54.5626 17.5467 53.6217 16.5505C52.6808 15.5265 51.477 15.0146 50.0104 15.0146C48.5437 15.0146 47.3261 15.5265 46.3575 16.5505C45.4166 17.5744 44.9462 18.9719 44.9462 20.7429Z" fill="black"/>
<path d="M68.5354 25.06C69.5593 26.0839 70.7908 26.5958 72.2298 26.5958C73.6688 26.5958 74.8864 26.0839 75.8827 25.06C76.9066 24.0361 77.4185 22.6109 77.4185 20.7845C77.4185 18.958 76.9066 17.5329 75.8827 16.5089C74.8864 15.485 73.6688 14.9731 72.2298 14.9731C70.7908 14.9731 69.5593 15.485 68.5354 16.5089C67.5392 17.5329 67.0411 18.958 67.0411 20.7845C67.0411 22.6109 67.5392 24.0361 68.5354 25.06ZM64.5505 13.0221C66.5983 10.9743 69.1581 9.95039 72.2298 9.95039C75.3015 9.95039 77.8475 10.9743 79.8676 13.0221C81.9154 15.0699 82.9393 17.6574 82.9393 20.7845C82.9393 23.9115 81.9154 26.499 79.8676 28.5468C77.8475 30.5946 75.3015 31.6185 72.2298 31.6185C69.1581 31.6185 66.5983 30.5946 64.5505 28.5468C62.5303 26.499 61.5203 23.9115 61.5203 20.7845C61.5203 17.6574 62.5303 15.0699 64.5505 13.0221Z" fill="black"/>
<path d="M89.4557 25.06C90.4796 26.0839 91.7111 26.5958 93.1501 26.5958C94.5891 26.5958 95.8067 26.0839 96.803 25.06C97.8269 24.0361 98.3388 22.6109 98.3388 20.7845C98.3388 18.958 97.8269 17.5329 96.803 16.5089C95.8067 15.485 94.5891 14.9731 93.1501 14.9731C91.7111 14.9731 90.4796 15.485 89.4557 16.5089C88.4595 17.5329 87.9614 18.958 87.9614 20.7845C87.9614 22.6109 88.4595 24.0361 89.4557 25.06ZM85.4708 13.0221C87.5186 10.9743 90.0784 9.95039 93.1501 9.95039C96.2218 9.95039 98.7678 10.9743 100.788 13.0221C102.836 15.0699 103.86 17.6574 103.86 20.7845C103.86 23.9115 102.836 26.499 100.788 28.5468C98.7678 30.5946 96.2218 31.6185 93.1501 31.6185C90.0784 31.6185 87.5186 30.5946 85.4708 28.5468C83.4506 26.499 82.4406 23.9115 82.4406 20.7845C82.4406 17.6574 83.4506 15.0699 85.4708 13.0221Z" fill="black"/>
</svg>
