<svg width="152" height="139" viewBox="0 0 152 139" fill="none" xmlns="http://www.w3.org/2000/svg">
<path d="M43.6516 66.4013C43.6516 75.372 50.9238 82.6442 59.8946 82.6442L84.2591 82.6442C86.7509 82.6442 88.771 80.6242 88.771 78.1323L88.771 47.4511C88.771 42.4673 84.7309 38.4272 79.7471 38.4272L48.1635 38.4272C45.6717 38.4272 43.6516 40.4473 43.6516 42.9392L43.6516 66.4013Z" fill="#FFF1DA"/>
<path d="M87.4931 78.9818C86.2674 79.2564 85.0735 79.7649 83.9856 80.4754C81.1514 82.2814 79.5025 84.8593 80.3029 86.2328C81.1032 87.6064 84.0496 87.2551 86.8838 85.4492C87.9863 84.7637 88.9657 83.8877 89.7618 82.8752C90.1312 82.386 90.1975 81.7765 89.9311 81.3209L88.8914 79.5365C88.6269 79.0794 88.0781 78.8621 87.4931 78.9818Z" fill="#D5D6DB"/>
<path d="M80.3759 54.6235C79.4871 54.8228 78.6214 55.1916 77.8325 55.707C75.7779 57.0161 74.5815 58.8853 75.1614 59.8805C75.7413 60.8756 77.8785 60.6207 79.9329 59.3116C80.7323 58.8144 81.4424 58.1788 82.0198 57.4446C82.2873 57.09 82.3353 56.6485 82.1422 56.3181L81.3893 55.0261C81.1978 54.6948 80.8002 54.5368 80.3759 54.6235Z" fill="#D5D6DB"/>
<path d="M68.8126 55.6436C68.6147 55.6215 68.4037 55.6743 68.2208 55.7911L63.3946 58.8667C62.9909 59.1231 62.8294 59.617 63.0342 59.97C63.081 60.0509 63.1451 60.12 63.2229 60.1733L75.1179 68.3714L91.2106 58.116L68.8126 55.6436Z" fill="#029BC5"/>
<path d="M119.686 54.4844L75.8918 82.0543L49.9818 92.3644L36.768 94.991L35.3143 92.521L108.313 47.4498C110.489 46.1008 112.912 45.2728 115.338 45.0499C116.401 44.9579 117.45 44.9932 118.462 45.1546C119.359 45.2906 120.21 45.5529 120.989 45.9338C121.859 46.3654 123.515 46.4151 124.051 47.2749C124.053 47.2736 125.318 51.221 119.686 54.4844V54.4844Z" fill="#E1E6E9"/>
<path d="M76.4723 78.4063L57.5264 108.609C57.2898 109.033 57.4303 109.509 57.8398 109.67C58.0912 109.77 58.3989 109.73 58.6573 109.566L63.4797 106.507C64.4072 105.918 65.2285 105.171 65.8928 104.31L102.635 61.1137L76.4723 78.4063Z" fill="#029BC5"/>
<path d="M28.6642 77.3979C28.3481 77.2899 27.972 77.3459 27.6545 77.5481L23.6682 80.0869C23.1251 80.4325 22.9086 81.0971 23.1846 81.5714C23.2372 81.6616 23.3055 81.741 23.3874 81.8064L34.5561 90.7511L46.2988 83.4164L28.6642 77.3979Z" fill="#029BC5"/>
<path d="M38.2995 92.3636L32.2883 100.782C32.2001 100.903 32.2209 101.055 32.3345 101.122C32.4165 101.169 32.5284 101.161 32.6193 101.1L36.3446 98.739C36.3736 98.7207 36.3998 98.6977 36.4214 98.6715L45.2049 87.9919L38.2995 92.3636Z" fill="#029BC5"/>
<path d="M117.743 45.5176C116.701 45.3502 115.621 45.3145 114.526 45.4107C113.461 46.9006 112.779 48.5743 112.551 50.2649C112.534 50.6044 112.808 50.8489 113.162 50.8108C113.273 50.7988 113.382 50.7601 113.481 50.6981L120.346 46.3266C119.543 45.9309 118.667 45.6585 117.743 45.5176Z" fill="#029BC5"/>
<path d="M102.782 53.5561L107.264 50.7253L111.439 57.8263L106.957 60.657L102.782 53.5561Z" fill="#D5D6DB"/>
<path d="M99.9618 56.3645C99.4217 56.7067 99.2058 57.3643 99.48 57.8333L99.9242 58.5931C100.216 59.0501 100.884 59.1305 101.414 58.7725C101.92 58.4316 102.123 57.812 101.88 57.3544L101.435 56.5946C101.161 56.1261 100.502 56.0229 99.9618 56.3645V56.3645Z" fill="#3A556A"/>
<path d="M95.9332 58.8664C95.3931 59.2085 95.1772 59.8662 95.4514 60.3352L95.8957 61.095C96.1879 61.552 96.855 61.6323 97.3859 61.2744C97.8911 60.9334 98.0945 60.3138 97.851 59.8563L97.4068 59.0965C97.1326 58.628 96.4731 58.5249 95.9332 58.8664V58.8664Z" fill="#3A556A"/>
<path d="M91.9033 61.369C91.3637 61.7116 91.1486 62.3685 91.4226 62.837L91.8669 63.5968C92.1591 64.0538 92.8262 64.1342 93.3571 63.7762C93.8622 63.4353 94.0657 62.8157 93.8222 62.3582L93.378 61.5984C93.1038 61.1294 92.4436 61.0267 91.9033 61.369V61.369Z" fill="#3A556A"/>
<path d="M87.8748 63.8708C87.3353 64.2134 87.1202 64.8702 87.3942 65.3388L87.8384 66.0986C88.1306 66.5556 88.7978 66.636 89.3286 66.278C89.8338 65.9371 90.0372 65.3175 89.7938 64.8599L89.3495 64.1001C89.0751 63.6313 88.4149 63.5286 87.8748 63.8708V63.8708Z" fill="#3A556A"/>
<path d="M83.8466 66.3728C83.3067 66.7155 83.0915 67.3727 83.3656 67.8414L83.8102 68.6015C84.0842 69.0701 84.7441 69.1728 85.284 68.8308C85.824 68.4888 86.0396 67.8317 85.7655 67.3631L85.321 66.603C85.0477 66.1339 84.388 66.0306 83.8477 66.372C83.8473 66.3723 83.847 66.3725 83.8466 66.3728Z" fill="#3A556A"/>
<path d="M79.8179 68.8746C79.2781 69.2173 79.0628 69.8745 79.337 70.3433L79.7815 71.1034C80.0555 71.572 80.7154 71.6746 81.2553 71.3326C81.7953 70.9906 82.0109 70.3335 81.7369 69.8649L81.2923 69.1048C81.019 68.6358 80.3594 68.5325 79.819 68.8739C79.8186 68.8742 79.8181 68.8745 79.8179 68.8746Z" fill="#3A556A"/>
<path d="M75.7891 71.3765C75.2492 71.7192 75.034 72.3764 75.3081 72.8451L75.7526 73.6052C76.0274 74.0734 76.6875 74.175 77.2269 73.8325C77.7654 73.4907 77.9805 72.8349 77.7078 72.3669L77.2633 71.6068C76.9893 71.1379 76.3295 71.0348 75.7891 71.3765Z" fill="#3A556A"/>
<path d="M71.7604 73.8784C71.2205 74.2211 71.0053 74.8783 71.2795 75.3471L71.724 76.1072C71.9987 76.5753 72.6589 76.6769 73.1982 76.3345C73.7367 75.9926 73.9518 75.3369 73.6791 74.8688L73.2346 74.1087C72.9607 73.6398 72.3008 73.5366 71.7604 73.8784Z" fill="#3A556A"/>
<path d="M67.7318 76.3802C67.192 76.723 66.9768 77.3801 67.2509 77.8489L67.6954 78.609C67.9701 79.0771 68.6303 79.1787 69.1697 78.8362C69.7081 78.4944 69.9233 77.8387 69.6505 77.3707L69.206 76.6106C68.9319 76.1418 68.272 76.0386 67.7318 76.3802Z" fill="#3A556A"/>
<path d="M63.7019 78.8827C63.162 79.2247 62.9464 79.8818 63.2204 80.3504L63.221 80.3514L63.6655 81.1115C63.9402 81.5797 64.6004 81.6812 65.1398 81.3388C65.6782 80.9969 65.8934 80.3412 65.6206 79.8732L65.1761 79.1131C64.9022 78.6441 64.2423 78.541 63.7019 78.8827Z" fill="#3A556A"/>
<path d="M59.6744 81.3839C59.1344 81.7259 58.9189 82.383 59.1929 82.8515L59.1935 82.8525L59.638 83.6126C59.9127 84.0808 60.5729 84.1823 61.1123 83.8399C61.6508 83.498 61.8659 82.8423 61.5931 82.3743L61.1486 81.6142C60.8745 81.1455 60.2146 81.0423 59.6744 81.3839Z" fill="#3A556A"/>
</svg>
